<svg xmlns="http://www.w3.org/2000/svg" width="25" height="24" viewBox="0 0 25 24" fill="none">
  <mask id="mask0_63_671" style="mask-type:alpha" maskUnits="userSpaceOnUse" x="0" y="0" width="25" height="24">
    <rect x="0.5" width="24" height="24" fill="#D9D9D9"/>
  </mask>
  <g mask="url(#mask0_63_671)">
    <path d="M7.25 22.5C6.52083 22.5 5.90104 22.2337 5.39062 21.7011C4.88021 21.1685 4.625 20.5217 4.625 19.7609C4.625 19 4.88021 18.3533 5.39062 17.8207C5.90104 17.288 6.52083 17.0217 7.25 17.0217C7.45417 17.0217 7.64375 17.0446 7.81875 17.0902C7.99375 17.1359 8.16146 17.1967 8.32188 17.2728L9.56875 15.6522C9.16042 15.1804 8.87604 14.6478 8.71563 14.0543C8.55521 13.4609 8.51875 12.8674 8.60625 12.2739L6.83437 11.6576C6.58646 12.038 6.27292 12.3424 5.89375 12.5707C5.51458 12.7989 5.09167 12.913 4.625 12.913C3.89583 12.913 3.27604 12.6467 2.76562 12.1141C2.25521 11.5815 2 10.9348 2 10.1739C2 9.41304 2.25521 8.7663 2.76562 8.2337C3.27604 7.70109 3.89583 7.43478 4.625 7.43478C5.35417 7.43478 5.97396 7.70109 6.48438 8.2337C6.99479 8.7663 7.25 9.41304 7.25 10.1739V10.3565L9.02188 10.9957C9.31354 10.4478 9.70365 9.9837 10.1922 9.60326C10.6807 9.22283 11.2312 8.97935 11.8438 8.87283V6.88696C11.275 6.71957 10.8047 6.3962 10.4328 5.91685C10.0609 5.4375 9.875 4.87826 9.875 4.23913C9.875 3.47826 10.1302 2.83152 10.6406 2.29891C11.151 1.7663 11.7708 1.5 12.5 1.5C13.2292 1.5 13.849 1.7663 14.3594 2.29891C14.8698 2.83152 15.125 3.47826 15.125 4.23913C15.125 4.87826 14.9354 5.4375 14.5563 5.91685C14.1771 6.3962 13.7104 6.71957 13.1562 6.88696V8.87283C13.7688 8.97935 14.3193 9.22283 14.8078 9.60326C15.2964 9.9837 15.6865 10.4478 15.9781 10.9957L17.75 10.3565V10.1739C17.75 9.41304 18.0052 8.7663 18.5156 8.2337C19.026 7.70109 19.6458 7.43478 20.375 7.43478C21.1042 7.43478 21.724 7.70109 22.2344 8.2337C22.7448 8.7663 23 9.41304 23 10.1739C23 10.9348 22.7448 11.5815 22.2344 12.1141C21.724 12.6467 21.1042 12.913 20.375 12.913C19.9083 12.913 19.4818 12.7989 19.0953 12.5707C18.7089 12.3424 18.399 12.038 18.1656 11.6576L16.3938 12.2739C16.4813 12.8674 16.4448 13.4571 16.2844 14.0429C16.124 14.6288 15.8396 15.1652 15.4313 15.6522L16.6781 17.25C16.8385 17.1739 17.0063 17.1168 17.1813 17.0788C17.3563 17.0408 17.5458 17.0217 17.75 17.0217C18.4792 17.0217 19.099 17.288 19.6094 17.8207C20.1198 18.3533 20.375 19 20.375 19.7609C20.375 20.5217 20.1198 21.1685 19.6094 21.7011C19.099 22.2337 18.4792 22.5 17.75 22.5C17.0208 22.5 16.401 22.2337 15.8906 21.7011C15.3802 21.1685 15.125 20.5217 15.125 19.7609C15.125 19.4565 15.1724 19.1636 15.2672 18.8821C15.362 18.6005 15.4896 18.3457 15.65 18.1174L14.4031 16.4967C13.8052 16.8467 13.1672 17.0217 12.4891 17.0217C11.8109 17.0217 11.1729 16.8467 10.575 16.4967L9.35 18.1174C9.51042 18.3457 9.63802 18.6005 9.73281 18.8821C9.8276 19.1636 9.875 19.4565 9.875 19.7609C9.875 20.5217 9.61979 21.1685 9.10938 21.7011C8.59896 22.2337 7.97917 22.5 7.25 22.5Z" fill="#7A8792"/>
  </g>
</svg>