<svg xmlns="http://www.w3.org/2000/svg" width="25" height="24" viewBox="0 0 25 24" fill="none">
  <mask id="mask0_63_703" style="mask-type:alpha" maskUnits="userSpaceOnUse" x="0" y="0" width="25" height="24">
    <rect x="0.5" width="24" height="24" fill="#D9D9D9"/>
  </mask>
  <g mask="url(#mask0_63_703)">
    <path d="M8.5 19H16.5V17H8.5V19ZM8.5 16H16.5V14H8.5V16ZM12.5 12.3C13.6 11.3 14.5417 10.4125 15.325 9.6375C16.1083 8.8625 16.5 8.05 16.5 7.2C16.5 6.6 16.2833 6.08333 15.85 5.65C15.4167 5.21667 14.9 5 14.3 5C13.95 5 13.6125 5.07083 13.2875 5.2125C12.9625 5.35417 12.7 5.55 12.5 5.8C12.3 5.55 12.0375 5.35417 11.7125 5.2125C11.3875 5.07083 11.05 5 10.7 5C10.1 5 9.58333 5.21667 9.15 5.65C8.71667 6.08333 8.5 6.6 8.5 7.2C8.5 8.05 8.87917 8.85 9.6375 9.6C10.3958 10.35 11.35 11.25 12.5 12.3ZM18.5 22H6.5C5.95 22 5.47917 21.8042 5.0875 21.4125C4.69583 21.0208 4.5 20.55 4.5 20V4C4.5 3.45 4.69583 2.97917 5.0875 2.5875C5.47917 2.19583 5.95 2 6.5 2H18.5C19.05 2 19.5208 2.19583 19.9125 2.5875C20.3042 2.97917 20.5 3.45 20.5 4V20C20.5 20.55 20.3042 21.0208 19.9125 21.4125C19.5208 21.8042 19.05 22 18.5 22Z" fill="#7A8792"/>
  </g>
</svg>