<svg xmlns="http://www.w3.org/2000/svg" width="25" height="24" viewBox="0 0 25 24" fill="none">
  <path d="M11.3235 20.2561C9.2172 19.4009 6.98619 18.8717 4.71093 18.6871L3.72713 18.6054V5.82617H1.89844V20.7353H12.5048L11.3235 20.2561Z" fill="#7A8792"/>
  <path d="M20.3492 18.68C18.0725 18.8635 15.839 19.3907 13.7294 20.2419L12.5078 20.7353H23.1142V5.82617H21.2855V18.6054L20.3492 18.68Z" fill="#7A8792"/>
  <path d="M13.7294 20.2409C15.8389 19.3897 18.0725 18.8625 20.3492 18.679L21.2854 18.6044V3.69531L20.3309 3.77339C18.0549 3.95656 15.8225 4.48478 13.7147 5.33885L12.5078 5.82519V20.7343L13.7294 20.2409Z" fill="#7A8792"/>
  <path d="M4.71041 18.6861C6.98566 18.8707 9.21664 19.4 11.3229 20.2551L12.5042 20.7343V5.82519L11.2973 5.33885C9.18955 4.48478 6.95711 3.9566 4.68113 3.77339L3.72656 3.69531V18.6044L4.71041 18.6861Z" fill="#7A8792"/>
  <path d="M23.1097 5.47113H21.6468V3.69622C21.6475 3.50029 21.4844 3.34055 21.2825 3.33984C21.2719 3.33984 21.2613 3.34022 21.2503 3.34126L20.2961 3.41934C17.9821 3.605 15.7127 4.14208 13.5702 5.01105L12.5033 5.44164L11.4376 5.01246C9.29512 4.1435 7.02535 3.60608 4.71097 3.42042L3.7564 3.34126C3.55526 3.32491 3.37825 3.46976 3.3614 3.66498C3.36029 3.67526 3.35995 3.68591 3.35995 3.69622V5.47113H1.89697C1.6951 5.47113 1.53125 5.63017 1.53125 5.8261V20.7352C1.53125 20.9312 1.6951 21.0902 1.89697 21.0902H23.1097C23.3115 21.0902 23.4754 20.9312 23.4754 20.7352V5.8261C23.4754 5.63017 23.3116 5.47113 23.1097 5.47113ZM13.8514 5.66707C15.9237 4.82685 18.1189 4.30748 20.3572 4.12786L20.9153 4.08243V18.2784L20.3144 18.326C17.9997 18.5123 15.7292 19.0483 13.5849 19.9141L12.8691 20.2028V6.06288L13.8514 5.66707ZM4.09139 4.08243L4.64951 4.12786C6.8882 4.30748 9.08369 4.8268 11.1563 5.6674L12.1376 6.06284V20.2027L11.4632 19.9294C9.3222 19.0586 7.0539 18.5197 4.74063 18.332L4.09143 18.2794L4.09139 4.08243ZM2.26274 6.18106H3.35995V18.6054C3.35922 18.7903 3.50477 18.9447 3.69459 18.9603L4.67878 19.042C4.94687 19.0637 5.2153 19.0906 5.48339 19.1226C5.57301 19.1328 5.66186 19.1467 5.75148 19.158C5.92887 19.1811 6.10623 19.2042 6.28289 19.2315C6.38824 19.2479 6.49321 19.267 6.59817 19.2851C6.75838 19.3125 6.91855 19.3398 7.07803 19.3703C7.18775 19.3916 7.29747 19.415 7.40719 19.4381C7.56118 19.4701 7.71514 19.5027 7.8684 19.5382C7.97812 19.5638 8.08969 19.5911 8.20014 19.6185C8.35117 19.6561 8.50187 19.6944 8.65218 19.7349C8.7619 19.7647 8.87162 19.796 8.98134 19.8272C9.13058 19.8702 9.27943 19.9145 9.4279 19.9607C9.5365 19.9944 9.64515 20.0288 9.75342 20.0644C9.903 20.113 10.0515 20.1641 10.2 20.2163C10.3053 20.2518 10.411 20.2905 10.5156 20.3292C10.5609 20.3459 10.6059 20.3647 10.6509 20.381H2.26274V6.18106ZM22.7439 20.3803H14.3613C14.4114 20.3615 14.4611 20.3416 14.5112 20.3231C14.621 20.2823 14.7307 20.2436 14.843 20.2049C14.9863 20.1545 15.1304 20.1055 15.2749 20.0583C15.3875 20.0228 15.5009 19.9873 15.6139 19.9518C15.7584 19.9071 15.9036 19.8645 16.0488 19.8226C16.1629 19.7899 16.2774 19.7576 16.3918 19.7271C16.5381 19.6873 16.6844 19.6501 16.8344 19.6135C16.9477 19.5855 17.0615 19.5574 17.1756 19.5311C17.3278 19.4957 17.481 19.4637 17.6342 19.4321C17.744 19.409 17.8537 19.3853 17.9656 19.364C18.1265 19.3331 18.2882 19.3058 18.4495 19.2784C18.5541 19.2606 18.6583 19.2429 18.7633 19.2251C18.9436 19.1974 19.1243 19.1737 19.3053 19.1502C19.392 19.1392 19.4787 19.1257 19.5657 19.1147C19.8338 19.0832 20.1034 19.0565 20.3744 19.0342L21.311 18.9603C21.5012 18.9451 21.6475 18.7906 21.6468 18.6054V6.18106H22.744L22.7439 20.3803Z" fill="#24262B"/>
  <path d="M13.9023 9.79453C14.9781 9.43594 17.1297 8.71875 18.7433 8.71875" stroke="#24262B"/>
  <path d="M10.6758 9.79453C9.6 9.43594 7.44844 8.71875 5.83478 8.71875" stroke="#24262B"/>
  <path d="M10.6758 11.9469C9.6 11.5883 7.44844 10.8711 5.83478 10.8711" stroke="#24262B"/>
  <path d="M10.6758 14.0973C9.6 13.7387 7.44844 13.0215 5.83478 13.0215" stroke="#24262B"/>
  <path d="M13.9023 11.9469C14.9781 11.5883 17.1297 10.8711 18.7433 10.8711" stroke="#24262B"/>
  <path d="M13.9023 14.0973C14.9781 13.7387 17.1297 13.0215 18.7433 13.0215" stroke="#24262B"/>
</svg>