<svg xmlns="http://www.w3.org/2000/svg" width="24" height="25" viewBox="0 0 24 25" fill="none">
  <path d="M18.6558 4.33552C16.7643 2.82207 14.4136 1.99807 11.9911 1.99927C9.1355 1.99927 6.46831 3.09943 4.47425 5.09724C2.54722 7.03036 1.49112 9.58271 1.49956 12.2822C1.49963 14.2614 2.08068 16.1971 3.17066 17.8491L3.17956 17.8618C3.19269 17.881 3.20628 17.9002 3.21987 17.919C3.23347 17.9377 3.25034 17.9621 3.25409 17.9682L3.26441 17.9869C3.31737 18.0807 3.35816 18.1951 3.32206 18.3104L2.45862 21.4351C2.42408 21.5512 2.40517 21.6715 2.40237 21.7927C2.40175 22.1115 2.52758 22.4176 2.75226 22.6437C2.97695 22.8699 3.28216 22.9978 3.60097 22.9993C3.76944 22.9937 3.93546 22.9573 4.09081 22.8919L7.25441 21.75L7.29425 21.7346C7.38031 21.6984 7.47279 21.6801 7.56612 21.6807C7.65218 21.6809 7.73748 21.6968 7.81784 21.7276C7.89378 21.7571 8.58331 22.021 9.31081 22.2244C9.9155 22.3932 11.1736 22.6463 12.1594 22.6463C14.9555 22.6463 17.5664 21.5635 19.5108 19.5966C21.4383 17.6447 22.4996 15.0502 22.4996 12.2879C22.4998 11.5788 22.4247 10.8717 22.2755 10.1785C21.7908 7.89943 20.5055 5.8238 18.6558 4.33552ZM7.49956 13.9993C7.20289 13.9993 6.91288 13.9113 6.66621 13.7465C6.41953 13.5817 6.22727 13.3474 6.11374 13.0733C6.00021 12.7992 5.97051 12.4976 6.02838 12.2066C6.08626 11.9157 6.22912 11.6484 6.4389 11.4386C6.64868 11.2288 6.91596 11.086 7.20693 11.0281C7.4979 10.9702 7.7995 10.9999 8.07359 11.1134C8.34768 11.227 8.58194 11.4192 8.74677 11.6659C8.91159 11.9126 8.99956 12.2026 8.99956 12.4993C8.99956 12.8971 8.84153 13.2786 8.56022 13.5599C8.27892 13.8412 7.89739 13.9993 7.49956 13.9993ZM11.9996 13.9993C11.7029 13.9993 11.4129 13.9113 11.1662 13.7465C10.9195 13.5817 10.7273 13.3474 10.6137 13.0733C10.5002 12.7992 10.4705 12.4976 10.5284 12.2066C10.5863 11.9157 10.7291 11.6484 10.9389 11.4386C11.1487 11.2288 11.416 11.086 11.7069 11.0281C11.9979 10.9702 12.2995 10.9999 12.5736 11.1134C12.8477 11.227 13.0819 11.4192 13.2468 11.6659C13.4116 11.9126 13.4996 12.2026 13.4996 12.4993C13.4996 12.8971 13.3415 13.2786 13.0602 13.5599C12.7789 13.8412 12.3974 13.9993 11.9996 13.9993ZM16.4996 13.9993C16.2029 13.9993 15.9129 13.9113 15.6662 13.7465C15.4195 13.5817 15.2273 13.3474 15.1137 13.0733C15.0002 12.7992 14.9705 12.4976 15.0284 12.2066C15.0863 11.9157 15.2291 11.6484 15.4389 11.4386C15.6487 11.2288 15.916 11.086 16.2069 11.0281C16.4979 10.9702 16.7995 10.9999 17.0736 11.1134C17.3477 11.227 17.5819 11.4192 17.7468 11.6659C17.9116 11.9126 17.9996 12.2026 17.9996 12.4993C17.9996 12.8971 17.8415 13.2786 17.5602 13.5599C17.2789 13.8412 16.8974 13.9993 16.4996 13.9993Z" fill="#7A8792"/>
</svg>