<svg xmlns="http://www.w3.org/2000/svg" width="25" height="24" viewBox="0 0 25 24" fill="none">
<mask id="mask0_63_620" style="mask-type:alpha" maskUnits="userSpaceOnUse" x="0" y="0" width="25" height="24">
<rect x="0.5" width="24" height="24" fill="#D9D9D9"/>
</mask>
<g mask="url(#mask0_63_620)">
<path d="M12.5 22C9.94444 22 7.71759 21.1528 5.81944 19.4583C3.9213 17.7639 2.83333 15.6481 2.55556 13.1111H4.83333C5.09259 15.037 5.94907 16.6296 7.40278 17.8889C8.85648 19.1481 10.5556 19.7778 12.5 19.7778C14.6667 19.7778 16.5046 19.0231 18.0139 17.5139C19.5231 16.0046 20.2778 14.1667 20.2778 12C20.2778 9.83333 19.5231 7.99537 18.0139 6.48611C16.5046 4.97685 14.6667 4.22222 12.5 4.22222C11.2222 4.22222 10.0278 4.51852 8.91667 5.11111C7.80556 5.7037 6.87037 6.51852 6.11111 7.55556H9.16667V9.77778H2.5V3.11111H4.72222V5.72222C5.66667 4.53704 6.81944 3.62037 8.18056 2.97222C9.54167 2.32407 10.9815 2 12.5 2C13.8889 2 15.1898 2.26389 16.4028 2.79167C17.6157 3.31944 18.6713 4.03241 19.5694 4.93056C20.4676 5.8287 21.1806 6.88426 21.7083 8.09722C22.2361 9.31019 22.5 10.6111 22.5 12C22.5 13.3889 22.2361 14.6898 21.7083 15.9028C21.1806 17.1157 20.4676 18.1713 19.5694 19.0694C18.6713 19.9676 17.6157 20.6806 16.4028 21.2083C15.1898 21.7361 13.8889 22 12.5 22ZM15.6111 16.6667L11.3889 12.4444V6.44444H13.6111V11.5556L17.1667 15.1111L15.6111 16.6667Z" fill="#7A8792"/>
</g>
</svg>