<svg xmlns="http://www.w3.org/2000/svg" width="25" height="24" viewBox="0 0 25 24" fill="none">
  <path fill-rule="evenodd" clip-rule="evenodd" d="M23.4409 11.9998C23.4409 18.0424 18.5424 22.9409 12.4998 22.9409C6.45713 22.9409 1.55859 18.0424 1.55859 11.9998C1.55859 5.95713 6.45713 1.05859 12.4998 1.05859C18.5424 1.05859 23.4409 5.95713 23.4409 11.9998ZM10.5685 10.0684L6.70312 17.8262L14.4301 13.93L18.2952 6.20312L10.5685 10.0684ZM12.4984 13.1452C13.1317 13.1452 13.6452 12.6317 13.6452 11.9984C13.6452 11.365 13.1317 10.8516 12.4984 10.8516C11.865 10.8516 11.3516 11.365 11.3516 11.9984C11.3516 12.6317 11.865 13.1452 12.4984 13.1452Z" fill="#7A8792"/>
</svg>