<svg xmlns="http://www.w3.org/2000/svg" width="25" height="24" viewBox="0 0 25 24" fill="none">
  <g clip-path="url(#clip0_63_628)">
    <path d="M23.1627 6.98667C22.0898 4.2907 19.0347 2.98136 16.3433 4.05429C15.9568 4.20887 15.6022 4.40436 15.2749 4.63168C14.4565 5.19997 13.4927 5.53639 12.4925 5.53639C11.9924 5.53639 11.5014 5.45456 11.0377 5.29999C10.5694 5.14541 10.1239 4.91809 9.71929 4.63168C9.39195 4.40436 9.03279 4.20887 8.64636 4.05429C5.94584 2.97682 2.89527 4.2907 1.82234 6.98667C0.749406 9.68263 -0.873629 17.9115 2.57702 19.289C4.47738 20.0482 6.68689 18.2388 8.46905 16.0156C9.11463 15.2064 10.1012 14.7472 11.1377 14.7472H13.8519C14.8884 14.7472 15.875 15.2064 16.5206 16.0156C18.3073 18.2388 20.5122 20.0482 22.4126 19.289C25.8633 17.9115 24.2357 9.68263 23.1627 6.98667ZM8.60999 10.2418H7.20517V11.6466C7.20517 12.0422 6.88238 12.365 6.48686 12.365C6.09133 12.365 5.76854 12.0422 5.76854 11.6466V10.2418H4.36373C3.9682 10.2418 3.64541 9.91904 3.64541 9.52351C3.64541 9.12798 3.9682 8.80519 4.36373 8.80519H5.76854V7.40038C5.76854 7.00485 6.09133 6.68207 6.48686 6.68207C6.88238 6.68207 7.20517 7.00485 7.20517 7.40038V8.80519H8.60999C9.00552 8.80519 9.3283 9.12798 9.3283 9.52351C9.3283 9.91904 9.00552 10.2418 8.60999 10.2418ZM18.2391 6.41838C18.821 6.41838 19.2893 6.88665 19.2893 7.46858C19.2893 8.05051 18.821 8.51423 18.2391 8.51423C17.6572 8.51423 17.1934 8.04596 17.1934 7.46858C17.1934 6.8912 17.6617 6.41838 18.2391 6.41838ZM16.1887 10.5737C15.6113 10.5737 15.1385 10.1054 15.1385 9.52351C15.1385 8.94158 15.6113 8.47786 16.1887 8.47786C16.7661 8.47786 17.2389 8.94613 17.2389 9.52351C17.2389 10.1009 16.7661 10.5737 16.1887 10.5737ZM18.2391 12.6241C17.6617 12.6241 17.1934 12.1513 17.1934 11.5784C17.1934 11.0056 17.6617 10.5237 18.2391 10.5237C18.8165 10.5237 19.2893 10.992 19.2893 11.5784C19.2893 12.1649 18.821 12.6241 18.2391 12.6241ZM20.294 10.5737C19.7121 10.5737 19.2438 10.1054 19.2438 9.52351C19.2438 8.94158 19.7121 8.47786 20.294 8.47786C20.8759 8.47786 21.3397 8.94613 21.3397 9.52351C21.3397 10.1009 20.8714 10.5737 20.294 10.5737Z" fill="#57AE10"/>
  </g>
  <defs>
    <clipPath id="clip0_63_628">
      <rect width="24" height="24" fill="white" transform="translate(0.5)"/>
    </clipPath>
  </defs>
</svg>