<svg xmlns="http://www.w3.org/2000/svg" width="25" height="24" viewBox="0 0 25 24" fill="none">
  <path d="M11.469 6.75035H13.5315V12.0004H21.219C21.4925 12.0004 21.7548 11.8917 21.9482 11.6983C22.1416 11.5049 22.2502 11.2426 22.2502 10.9691V7.7816C22.2502 7.5081 22.1416 7.2458 21.9482 7.0524C21.7548 6.859 21.4925 6.75035 21.219 6.75035H18.4149C18.7947 5.9683 18.8831 5.07647 18.6644 4.23507C18.4456 3.39367 17.934 2.65782 17.2215 2.15971C16.509 1.6616 15.6422 1.43386 14.7769 1.5174C13.9115 1.60095 13.1043 1.99029 12.5002 2.61551C11.8951 1.99372 11.0886 1.60738 10.2248 1.52555C9.36107 1.44372 8.49635 1.67172 7.78523 2.16881C7.07411 2.6659 6.56294 3.39968 6.34308 4.239C6.12322 5.07832 6.209 5.96847 6.58509 6.75035H3.78149C3.50799 6.75035 3.24569 6.859 3.05229 7.0524C2.85889 7.2458 2.75024 7.5081 2.75024 7.7816V10.9691C2.75024 11.2426 2.85889 11.5049 3.05229 11.6983C3.14805 11.7941 3.26173 11.87 3.38685 11.9219C3.51197 11.9737 3.64607 12.0004 3.78149 12.0004H11.469V6.75035ZM13.5315 5.1566C13.5315 4.84139 13.625 4.53325 13.8001 4.27116C13.9752 4.00907 14.2241 3.8048 14.5153 3.68417C14.8066 3.56354 15.127 3.53198 15.4362 3.59348C15.7453 3.65497 16.0293 3.80676 16.2522 4.02965C16.4751 4.25254 16.6269 4.53652 16.6884 4.84568C16.7499 5.15484 16.7183 5.47529 16.5977 5.76651C16.4771 6.05773 16.2728 6.30664 16.0107 6.48176C15.7486 6.65688 15.4405 6.75035 15.1252 6.75035H13.5315V5.1566ZM8.2815 5.1566C8.2815 4.73392 8.44941 4.32854 8.74829 4.02965C9.04718 3.73077 9.45256 3.56285 9.87525 3.56285C10.2979 3.56285 10.7033 3.73077 11.0022 4.02965C11.3011 4.32854 11.469 4.73392 11.469 5.1566V6.75035H9.87525C9.45256 6.75035 9.04718 6.58244 8.74829 6.28356C8.44941 5.98467 8.2815 5.57929 8.2815 5.1566Z" fill="#7A8792"/>
  <path d="M13.5312 22.5023H19.7196C19.9932 22.5023 20.2555 22.3936 20.4489 22.2002C20.6424 22.0067 20.751 21.7444 20.751 21.4709V13.501H13.5312V22.5023Z" fill="#7A8792"/>
  <path d="M4.24951 21.4709C4.24951 21.7444 4.35818 22.0067 4.5516 22.2002C4.74503 22.3936 5.00737 22.5023 5.28091 22.5023H11.4693V13.501H4.24951V21.4709Z" fill="#7A8792"/>
</svg>