<svg xmlns="http://www.w3.org/2000/svg" width="25" height="25" viewBox="0 0 25 25" fill="none">
  <path d="M12.4993 2.74976C7.11474 2.74976 2.74927 7.11523 2.74927 12.4998C2.74927 17.8843 7.11474 22.2498 12.4993 22.2498C17.8838 22.2498 22.2493 17.8843 22.2493 12.4998C22.2493 7.11523 17.8838 2.74976 12.4993 2.74976Z" stroke="#7A8792" stroke-width="1.00189" stroke-miterlimit="10"/>
  <path d="M12.4992 2.74939C9.77715 2.74939 7.21777 7.11486 7.21777 12.4994C7.21777 17.8839 9.77715 22.2494 12.4992 22.2494C15.2212 22.2494 17.7806 17.8839 17.7806 12.4994C17.7806 7.11486 15.2212 2.74939 12.4992 2.74939Z" stroke="#7A8792" stroke-width="1.00189" stroke-miterlimit="10"/>
  <path d="M5.99878 6.18738C7.79128 7.46003 10.0478 8.21894 12.4989 8.21894C14.95 8.21894 17.2066 7.46003 18.9991 6.18738" stroke="#7A8792" stroke-width="1.00189" stroke-linecap="round" stroke-linejoin="round"/>
  <path d="M18.9991 18.8124C17.2066 17.5398 14.95 16.7809 12.4989 16.7809C10.0478 16.7809 7.79128 17.5398 5.99878 18.8124" stroke="#7A8792" stroke-width="1.00189" stroke-linecap="round" stroke-linejoin="round"/>
  <path d="M12.4998 2.74939V22.2494" stroke="#7A8792" stroke-width="1.00189" stroke-miterlimit="10"/>
  <path d="M22.249 12.4998H2.74902" stroke="#7A8792" stroke-width="1.00189" stroke-miterlimit="10"/>
</svg>