<svg xmlns="http://www.w3.org/2000/svg" width="25" height="24" viewBox="0 0 25 24" fill="none">
  <path d="M19.7731 4.56907C17.7702 2.61907 15.1194 1.5011 12.5 1.5011C9.88062 1.5011 7.22984 2.61907 5.22687 4.56907C3.14609 6.59501 2 9.1886 2 12.0011C2 14.8136 3.25812 17.5553 4.12906 19.1378C5 20.7203 6.17188 22.5011 7.25 22.5011C8.75 22.5011 11.75 21.0011 11.75 21.0011L6.5 11.2511L3.94906 12.7384C3.91767 12.4451 3.90202 12.1503 3.90219 11.8553C3.90219 9.5786 4.80781 7.44438 6.53422 5.76157C8.19875 4.14204 10.3438 3.28235 12.5 3.28235C14.6562 3.28235 16.7998 4.14204 18.4658 5.76344C20.1922 7.44438 21.0973 9.5786 21.0973 11.8572C21.0975 12.1519 21.0819 12.4464 21.0505 12.7394L18.5 11.2511L13.25 21.0011C13.25 21.0011 16.25 22.5011 17.75 22.5011C18.8281 22.5011 20 20.7198 20.8709 19.1378C21.7419 17.5558 23 14.8136 23 12.0011C23 9.1886 21.8539 6.59501 19.7731 4.56907Z" fill="#57AE10"/>
</svg>