<svg xmlns="http://www.w3.org/2000/svg" width="27" height="19" viewBox="0 0 27 19" fill="none">
  <g clip-path="url(#clip0_63_218)">
    <path d="M0.908203 0.5H26.0871V18.5H0.908203V0.5Z" fill="#181A93"/>
    <path d="M0 0.5H26.9999V6.5H0V0.5Z" fill="#FFA44A"/>
    <path d="M0 12.4961H26.9999V18.4961H0V12.4961Z" fill="#1A9F0B"/>
    <path d="M0 6.5H26.9999V12.5H0V6.5Z" fill="white"/>
    <path d="M13.4992 11.2992C14.4933 11.2992 15.2992 10.4933 15.2992 9.49922C15.2992 8.50511 14.4933 7.69922 13.4992 7.69922C12.5051 7.69922 11.6992 8.50511 11.6992 9.49922C11.6992 10.4933 12.5051 11.2992 13.4992 11.2992Z" fill="white"/>
    <path d="M13.5016 11.9016C12.1805 11.9016 11.1016 10.8226 11.1016 9.50156C11.1016 8.18051 12.1805 7.10156 13.5016 7.10156C14.8226 7.10156 15.9015 8.18051 15.9015 9.50156C15.9015 10.8226 14.8226 11.9016 13.5016 11.9016ZM13.5016 11.3016C14.4594 11.3016 15.3015 10.4595 15.3015 9.50156C15.3015 8.54367 14.4647 7.70156 13.5016 7.70156C12.5384 7.70156 11.7016 8.54367 11.7016 9.50156C11.7016 10.4595 12.5437 11.3016 13.5016 11.3016Z" fill="#181A93"/>
    <path d="M13.4988 10.6969C14.1616 10.6969 14.6988 10.1596 14.6988 9.49688C14.6988 8.83413 14.1616 8.29688 13.4988 8.29688C12.8361 8.29688 12.2988 8.83413 12.2988 9.49688C12.2988 10.1596 12.8361 10.6969 13.4988 10.6969Z" fill="#181A93"/>
  </g>
  <defs>
    <clipPath id="clip0_63_218">
      <rect width="26.9999" height="18" fill="white" transform="translate(0 0.5)"/>
    </clipPath>
  </defs>
</svg>