<svg xmlns="http://www.w3.org/2000/svg" width="90" height="25" viewBox="0 0 90 25" fill="none">
  <path d="M73.4174 3.98633H69.4922V22.6643H73.4174V3.98633Z" fill="white" fill-opacity="0.85"/>
  <path d="M46.693 9.56497C45.7958 9.12657 44.8069 8.90227 43.8077 8.92266C42.6454 8.92266 41.6157 9.16734 40.7083 9.65672C40.1883 9.932 39.7194 10.299 39.3217 10.7374V9.12657H35.5698V22.6763H39.5053V15.9779C39.5053 15.1418 39.648 14.4486 39.9233 13.9184C40.1782 13.4086 40.5758 12.9906 41.0855 12.7255C41.6055 12.4605 42.1765 12.3279 42.7576 12.3381C43.6344 12.3381 44.3073 12.593 44.7865 13.1232C45.2657 13.6431 45.5002 14.4486 45.5002 15.5395V22.6763H49.4254V14.9175C49.4254 13.5412 49.1807 12.4095 48.6913 11.5327C48.2427 10.6865 47.5392 10.0034 46.693 9.56497Z" fill="white" fill-opacity="0.85"/>
  <path d="M30.8096 10.3874C29.6677 9.41882 28.067 8.92944 25.9973 8.92944C24.9268 8.92944 23.8563 9.07218 22.8266 9.35765C21.8784 9.60234 20.971 10.0102 20.1554 10.5709L21.5725 13.3134C22.1027 12.9056 22.7042 12.5896 23.3465 12.3959C24.0296 12.1716 24.7535 12.0594 25.4774 12.0594C26.5377 12.0594 27.3227 12.2939 27.8325 12.7629C28.3423 13.2319 28.5972 13.8844 28.5972 14.7204H25.4774C24.101 14.7204 22.9795 14.8937 22.1231 15.2404C21.2667 15.587 20.6447 16.0662 20.2471 16.6677C19.4519 17.9626 19.4621 19.5836 20.2573 20.8682C20.6855 21.5106 21.2871 22.0203 21.9905 22.3364C22.745 22.6932 23.6524 22.8767 24.7127 22.8767C25.9056 22.8767 26.8843 22.6524 27.6388 22.1937C28.1384 21.898 28.5462 21.48 28.8419 20.9906V22.6728H32.5224V14.9447C32.5224 12.875 31.9515 11.3559 30.8096 10.3874ZM27.4655 19.7569C26.9353 20.073 26.3236 20.2361 25.7017 20.2259C25.0186 20.2259 24.468 20.0832 24.0806 19.7875C23.6932 19.5123 23.4689 19.0637 23.4893 18.5947C23.4791 18.1563 23.6728 17.7383 24.0092 17.463C24.3559 17.1571 24.988 17.0042 25.9056 17.0042H28.5972V18.3908C28.3933 18.9617 27.9854 19.4409 27.4655 19.7569Z" fill="white" fill-opacity="0.85"/>
  <path d="M62.4435 10.542C62.1274 10.1953 61.7808 9.90986 61.3832 9.67537C60.5268 9.17579 59.5276 8.92091 58.3857 8.92091C57.1827 8.90052 55.9898 9.19618 54.9397 9.77732C53.9201 10.3381 53.0841 11.1741 52.5132 12.1936C51.9218 13.2335 51.616 14.4672 51.616 15.8945C51.616 17.3015 51.9116 18.525 52.5132 19.5649C53.0841 20.5844 53.9201 21.4307 54.9397 22.0016C55.9898 22.5929 57.1827 22.8886 58.3857 22.8682C59.5786 22.8682 60.5981 22.6133 61.4443 22.1138C61.8929 21.8487 62.2804 21.5122 62.6168 21.1044V22.6745H66.3687V3.98633H62.4435V10.542ZM62.0459 17.903C61.7604 18.4434 61.322 18.892 60.802 19.1979C60.2719 19.5037 59.6805 19.6567 59.0688 19.6465C58.4469 19.6567 57.8454 19.5037 57.305 19.1877C56.7748 18.8818 56.3466 18.4332 56.0612 17.8929C55.7553 17.3321 55.5922 16.6592 55.5922 15.8945C55.5922 15.1095 55.7451 14.4366 56.0612 13.8759C56.3568 13.3457 56.785 12.8971 57.305 12.5912C57.8454 12.2854 58.4469 12.1324 59.0688 12.1426C59.6805 12.1324 60.2719 12.2956 60.802 12.5912C61.322 12.8971 61.7604 13.3457 62.0459 13.8759C62.3517 14.4264 62.5149 15.0993 62.5149 15.8945C62.5047 16.6694 62.3517 17.3423 62.0459 17.903Z" fill="white" fill-opacity="0.85"/>
  <path d="M88.9117 12.1849C88.3102 11.1551 87.4334 10.3191 86.3833 9.76859C85.272 9.19765 84.0383 8.90198 82.7945 8.92237C81.4181 8.92237 80.1844 9.21804 79.0935 9.81957C78.023 10.3905 77.136 11.2469 76.5141 12.2868C75.882 13.337 75.5659 14.54 75.5659 15.896C75.5659 17.2418 75.882 18.4347 76.5243 19.4848C77.1768 20.5451 78.1148 21.4117 79.2261 21.9623C80.3883 22.5638 81.7443 22.8697 83.294 22.8697C84.5175 22.8697 85.5982 22.676 86.5362 22.2987C87.4334 21.9521 88.2388 21.3913 88.8811 20.6777L86.7911 18.4143C86.3629 18.8323 85.8531 19.1687 85.2923 19.393C84.6806 19.6173 84.0383 19.7295 83.3858 19.7193C82.5804 19.7193 81.8769 19.5765 81.2855 19.2809C80.7044 19.0056 80.2252 18.557 79.899 17.9963C79.7256 17.6802 79.5931 17.3539 79.5115 17.0073H89.7579C89.7783 16.8442 89.7885 16.6607 89.8089 16.4669C89.8293 16.2732 89.8293 16.0999 89.8293 15.947C89.8497 14.489 89.5336 13.235 88.9117 12.1849ZM81.0409 12.3378C81.5812 12.0421 82.1929 11.8892 82.8149 11.8994C83.4266 11.8892 84.0383 12.0421 84.5787 12.3378C85.0782 12.6233 85.4861 13.0515 85.7613 13.5613C85.955 13.9283 86.0774 14.3157 86.1386 14.7133H79.4606C79.5217 14.3157 79.6543 13.9283 79.8378 13.5613C80.1233 13.0515 80.5311 12.6233 81.0409 12.3378Z" fill="white" fill-opacity="0.85"/>
  <path fill-rule="evenodd" clip-rule="evenodd" d="M1.49875 22.5527V24.4898L2.00852 24.5V22.5629H3.49701V17.873C3.49701 17.1083 3.91503 16.3946 4.57773 16.0072L12.1427 11.6334L15.7723 9.51278C16.3127 9.20692 16.6491 8.62576 16.6491 8.00378V2.43713H15.1606V0.5H14.6508V2.43713H13.1623V5.76079C13.1623 6.52545 12.7443 7.23913 12.0816 7.62663L3.48685 12.5918V2.44733H1.99831V0.510205H1.48854V2.44733H0V22.5527H1.49875ZM14.661 22.5527V24.4898H15.1708V22.5527H16.6593V16.1603C16.6491 15.1917 16.1291 14.2944 15.2931 13.805L13.2133 12.602L9.72641 14.6206L12.0918 15.9868C12.7647 16.3743 13.1725 17.0879 13.1725 17.8526V22.5527H14.661Z" fill="url(#paint0_linear_63_567)" fill-opacity="0.96"/>
  <defs>
    <linearGradient id="paint0_linear_63_567" x1="8.32455" y1="0.5" x2="8.32455" y2="24.5" gradientUnits="userSpaceOnUse">
      <stop stop-color="#FFEB34"/>
      <stop offset="1" stop-color="#1EAF76"/>
    </linearGradient>
  </defs>
</svg>