<svg xmlns="http://www.w3.org/2000/svg" width="25" height="24" viewBox="0 0 25 24" fill="none">
  <path d="M20.8509 4.86091L17.3145 1.32446C17.1747 1.18468 16.9883 1.10547 16.7926 1.10547H5.45177C5.04175 1.10547 4.71094 1.43628 4.71094 1.84631V21.6159C4.71094 22.026 5.04175 22.3568 5.45177 22.3568H20.3291C20.7391 22.3568 21.0699 22.026 21.0699 21.6159V5.38741C21.0699 5.18706 20.9907 5.00069 20.8509 4.86091ZM13.6802 5.54117C13.6802 5.38276 13.8293 5.26627 13.9831 5.29889C15.6791 5.69493 17.021 7.03683 17.417 8.73283C17.4496 8.88659 17.3331 9.03569 17.1747 9.03569H13.9271C13.792 9.03569 13.6802 8.92386 13.6802 8.78874V5.54117ZM11.8957 5.29889C12.0494 5.26627 12.1985 5.38276 12.1985 5.54117V9.77653C12.1985 10.1866 12.5293 10.5174 12.9394 10.5174H17.1747C17.3331 10.5174 17.4496 10.6665 17.417 10.8202C16.9278 12.9169 14.9988 14.4685 12.7343 14.366C10.3674 14.2635 8.4524 12.3485 8.34523 9.98154C8.24739 7.71709 9.79895 5.78812 11.8957 5.29889ZM16.6948 18.1214H9.18392C8.77389 18.1214 8.44308 17.7906 8.44308 17.3806C8.44308 16.9706 8.77389 16.6398 9.18392 16.6398H16.6948C17.1048 16.6398 17.4356 16.9706 17.4356 17.3806C17.4356 17.7906 17.1048 18.1214 16.6948 18.1214Z" fill="#7A8792"/>
</svg>