<svg xmlns="http://www.w3.org/2000/svg" width="22" height="24" viewBox="0 0 22 24" fill="none">
  <g clip-path="url(#clip0_63_588)">
    <path d="M11.0699 22.6673C16.5786 22.6673 21.0442 18.2017 21.0442 12.693C21.0442 7.18439 16.5786 2.71875 11.0699 2.71875C5.56132 2.71875 1.0957 7.18439 1.0957 12.693C1.0957 18.2017 5.56132 22.6673 11.0699 22.6673Z" fill="#004633" stroke="#231F20" stroke-width="0.0872028" stroke-miterlimit="10"/>
    <mask id="mask0_63_588" style="mask-type:luminance" maskUnits="userSpaceOnUse" x="1" y="1" width="21" height="21">
      <path d="M11.4293 21.2825C16.938 21.2825 21.4035 16.8169 21.4035 11.3083C21.4035 5.79962 16.938 1.33398 11.4293 1.33398C5.92069 1.33398 1.45508 5.79962 1.45508 11.3083C1.45508 16.8169 5.92069 21.2825 11.4293 21.2825Z" fill="white"/>
    </mask>
    <g mask="url(#mask0_63_588)">
      <path d="M11.4293 21.2825C16.938 21.2825 21.4035 16.8169 21.4035 11.3083C21.4035 5.79962 16.938 1.33398 11.4293 1.33398C5.92069 1.33398 1.45508 5.79962 1.45508 11.3083C1.45508 16.8169 5.92069 21.2825 11.4293 21.2825Z" fill="#069F72"/>
      <path d="M11.4296 19.7245C16.0776 19.7245 19.8455 15.9566 19.8455 11.3085C19.8455 6.66054 16.0776 2.89258 11.4296 2.89258C6.78162 2.89258 3.01367 6.66054 3.01367 11.3085C3.01367 15.9566 6.78162 19.7245 11.4296 19.7245Z" fill="#069F72"/>
      <path d="M11.4296 19.7245C16.0776 19.7245 19.8455 15.9566 19.8455 11.3085C19.8455 6.66054 16.0776 2.89258 11.4296 2.89258C6.78162 2.89258 3.01367 6.66054 3.01367 11.3085C3.01367 15.9566 6.78162 19.7245 11.4296 19.7245Z" stroke="#231F20" stroke-width="0.0872028" stroke-miterlimit="10"/>
    </g>
    <path d="M11.4293 21.2825C16.938 21.2825 21.4035 16.8169 21.4035 11.3083C21.4035 5.79962 16.938 1.33398 11.4293 1.33398C5.92069 1.33398 1.45508 5.79962 1.45508 11.3083C1.45508 16.8169 5.92069 21.2825 11.4293 21.2825Z" stroke="#231F20" stroke-width="0.0872028" stroke-miterlimit="10"/>
    <path d="M12.5014 10.1396L12.4674 8.97889L15.1218 8.90128L15.0703 7.13281L7.84303 7.34471L7.89448 9.11319L10.5489 9.03557L10.5829 10.1954C8.42816 10.3576 6.81839 10.832 6.8341 11.3438C6.84979 11.8557 8.48484 12.2351 10.644 12.2717L10.753 15.99L12.6723 15.9341L12.5633 12.2159C14.7137 12.0537 16.3199 11.5793 16.3051 11.0674C16.2903 10.5564 14.6579 10.1753 12.5014 10.1396ZM12.5537 11.9011C12.4996 11.9054 12.2215 11.9298 11.6023 11.9482C11.107 11.963 10.7582 11.9586 10.6353 11.956V11.9577C8.72637 11.929 7.29452 11.6386 7.28231 11.2418C7.27098 10.845 8.68366 10.4718 10.5873 10.3314L10.6248 11.6273C10.7495 11.6325 11.1079 11.6429 11.6006 11.6281C12.1927 11.6107 12.4892 11.5775 12.5441 11.5706L12.5066 10.2747C14.411 10.3035 15.8403 10.5948 15.8525 10.9907C15.8647 11.3866 14.453 11.7607 12.5537 11.9011Z" fill="white"/>
  </g>
  <defs>
    <clipPath id="clip0_63_588">
      <rect width="21.3333" height="24" fill="white" transform="translate(0.5)"/>
    </clipPath>
  </defs>
</svg>