<svg xmlns="http://www.w3.org/2000/svg" width="25" height="24" viewBox="0 0 25 24" fill="none">
  <mask id="mask0_63_643" style="mask-type:alpha" maskUnits="userSpaceOnUse" x="0" y="0" width="25" height="24">
    <rect x="0.5" width="24" height="24" fill="#D9D9D9"/>
  </mask>
  <g mask="url(#mask0_63_643)">
    <path d="M6.94444 22V19.7778H11.3889V16.3333C10.4815 16.1296 9.6713 15.7454 8.95833 15.1806C8.24537 14.6157 7.72222 13.9074 7.38889 13.0556C6 12.8889 4.83796 12.2824 3.90278 11.2361C2.96759 10.1898 2.5 8.96296 2.5 7.55556V6.44444C2.5 5.83333 2.71759 5.31019 3.15278 4.875C3.58796 4.43982 4.11111 4.22222 4.72222 4.22222H6.94444V2H18.0556V4.22222H20.2778C20.8889 4.22222 21.412 4.43982 21.8472 4.875C22.2824 5.31019 22.5 5.83333 22.5 6.44444V7.55556C22.5 8.96296 22.0324 10.1898 21.0972 11.2361C20.162 12.2824 19 12.8889 17.6111 13.0556C17.2778 13.9074 16.7546 14.6157 16.0417 15.1806C15.3287 15.7454 14.5185 16.1296 13.6111 16.3333V19.7778H18.0556V22H6.94444ZM6.94444 10.6667V6.44444H4.72222V7.55556C4.72222 8.25926 4.92593 8.89352 5.33333 9.45833C5.74074 10.0231 6.27778 10.4259 6.94444 10.6667ZM18.0556 10.6667C18.7222 10.4259 19.2593 10.0231 19.6667 9.45833C20.0741 8.89352 20.2778 8.25926 20.2778 7.55556V6.44444H18.0556V10.6667Z" fill="#7A8792"/>
  </g>
</svg>