<svg xmlns="http://www.w3.org/2000/svg" width="76" height="76" viewBox="0 0 76 76" fill="none">
  <rect x="2" y="2" width="72" height="72" rx="36" fill="url(#paint0_radial_63_210)"/>
  <rect x="1.25" y="1.25" width="73.5" height="73.5" rx="36.75" stroke="#656E78" stroke-opacity="0.2" stroke-width="1.5"/>
  <path d="M39.0594 24C41.7618 24 43.9212 24.7227 45.5376 26.1682C47.1792 27.6137 48 29.6529 48 32.2857C48 34.7121 47.2171 36.6093 45.6512 37.9773C44.1106 39.3195 42.0649 40.0036 39.514 40.0294L39.3246 42.9332H33.6421L33.4526 35.7316H35.7257C37.6704 35.7316 39.1478 35.4864 40.1581 34.996C41.1936 34.5056 41.7113 33.615 41.7113 32.3244C41.7113 31.421 41.4714 30.7112 40.9915 30.1949C40.5116 29.6787 39.8424 29.4206 38.9837 29.4206C38.0745 29.4206 37.3673 29.6916 36.8622 30.2336C36.3571 30.7499 36.1045 31.4597 36.1045 32.3632H30.0052C29.9547 30.7886 30.2704 29.3689 30.9523 28.1041C31.6595 26.8393 32.695 25.8456 34.0588 25.1228C35.4479 24.3743 37.1147 24 39.0594 24ZM36.5591 53C35.4226 53 34.4881 52.6644 33.7557 51.9933C33.0486 51.2964 32.695 50.4446 32.695 49.4379C32.695 48.4054 33.0486 47.5407 33.7557 46.8438C34.4881 46.1469 35.4226 45.7984 36.5591 45.7984C37.6704 45.7984 38.5796 46.1469 39.2867 46.8438C40.0192 47.5407 40.3854 48.4054 40.3854 49.4379C40.3854 50.4446 40.0192 51.2964 39.2867 51.9933C38.5796 52.6644 37.6704 53 36.5591 53Z" fill="#CFD8DF"/>
  <defs>
    <radialGradient id="paint0_radial_63_210" cx="0" cy="0" r="1" gradientUnits="userSpaceOnUse" gradientTransform="translate(38 38) rotate(90) scale(36)">
      <stop stop-color="#2D3035"/>
      <stop offset="1" stop-color="#1E2024"/>
    </radialGradient>
  </defs>
</svg>