<svg xmlns="http://www.w3.org/2000/svg" width="25" height="24" viewBox="0 0 25 24" fill="none">
  <mask id="mask0_63_697" style="mask-type:alpha" maskUnits="userSpaceOnUse" x="0" y="0" width="25" height="24">
    <rect x="0.5" width="24" height="24" fill="#D9D9D9"/>
  </mask>
  <g mask="url(#mask0_63_697)">
    <path d="M12.5 22.5C11.3 21.3667 9.925 20.5 8.375 19.9C6.825 19.3 5.2 19 3.5 19V8C5.18333 8 6.8 8.30417 8.35 8.9125C9.9 9.52083 11.2833 10.4 12.5 11.55C13.7167 10.4 15.1 9.52083 16.65 8.9125C18.2 8.30417 19.8167 8 21.5 8V19C19.7833 19 18.1542 19.3 16.6125 19.9C15.0708 20.5 13.7 21.3667 12.5 22.5ZM12.5 9C11.4 9 10.4583 8.60833 9.675 7.825C8.89167 7.04167 8.5 6.1 8.5 5C8.5 3.9 8.89167 2.95833 9.675 2.175C10.4583 1.39167 11.4 1 12.5 1C13.6 1 14.5417 1.39167 15.325 2.175C16.1083 2.95833 16.5 3.9 16.5 5C16.5 6.1 16.1083 7.04167 15.325 7.825C14.5417 8.60833 13.6 9 12.5 9Z" fill="#7A8792"/>
  </g>
</svg>