<svg xmlns="http://www.w3.org/2000/svg" width="25" height="24" viewBox="0 0 25 24" fill="none">
  <path fill-rule="evenodd" clip-rule="evenodd" d="M12.4685 0.685547C17.1511 0.685547 20.9606 4.49509 20.9606 9.17766C20.9606 13.8602 17.1511 17.6698 12.4685 17.6698C7.78597 17.6698 3.97642 13.8601 3.97642 9.17766C3.97642 4.49509 7.78597 0.685547 12.4685 0.685547ZM15.8599 10.2796L17.7153 8.06502C17.8624 7.88959 17.9087 7.65083 17.838 7.43318C17.7672 7.21553 17.5893 7.04944 17.3672 6.9939L14.5647 6.29286L13.0317 3.84388C12.9102 3.64993 12.6974 3.53211 12.4685 3.53211C12.2396 3.53211 12.0268 3.64993 11.9054 3.84388L10.3727 6.29286L7.57022 6.9939C7.34808 7.04944 7.17022 7.21553 7.09946 7.43318C7.0287 7.65083 7.07506 7.88959 7.22213 8.06519L9.0775 10.2796L8.87785 13.1616C8.8621 13.39 8.96487 13.6104 9.15 13.745C9.43114 13.9492 9.71713 13.8526 9.78893 13.8237L12.4685 12.7436L15.1481 13.8237C15.3604 13.9092 15.6018 13.8794 15.7871 13.745C15.9722 13.6104 16.075 13.39 16.0592 13.1616L15.8599 10.2796ZM13.5799 7.22553L12.468 5.44922L11.3564 7.22553C11.2652 7.37121 11.1211 7.47588 10.9545 7.51757L8.92174 8.02606L10.2674 9.6323C10.3778 9.76396 10.4328 9.93334 10.4209 10.1048L10.2761 12.1951L12.2195 11.4117C12.3119 11.3745 12.5008 11.3249 12.7162 11.4117L14.6598 12.1951L14.5152 10.1048C14.5034 9.93334 14.5585 9.76396 14.6688 9.6323L16.0145 8.02606L13.9818 7.51757C13.8152 7.47588 13.6711 7.37121 13.5799 7.22553ZM20.1714 15.2656L22.3161 19.5542C22.4192 19.7603 22.4081 20.0051 22.2872 20.201C22.1659 20.3966 21.9524 20.5158 21.7221 20.5158H18.496L16.5605 23.0967C16.4347 23.265 16.2371 23.3624 16.0293 23.3624C15.7534 23.3624 15.5359 23.1977 15.435 22.9953L13.4139 18.9532C16.1463 18.692 18.5553 17.3065 20.1714 15.2656ZM2.62493 19.5544L4.76958 15.2658C6.38569 17.3066 8.7947 18.6921 11.5271 18.9533L9.50613 22.9954C9.40509 23.1978 9.18761 23.3625 8.91166 23.3625C8.70387 23.3625 8.50646 23.2651 8.38068 23.0968L6.44503 20.516H3.21888C2.9886 20.516 2.7751 20.3968 2.65382 20.2011C2.53289 20.0052 2.52181 19.7604 2.62493 19.5544Z" fill="#7A8792"/>
</svg>