<svg xmlns="http://www.w3.org/2000/svg" width="84" height="21" viewBox="0 0 84 21" fill="none">
<path d="M1.05005 16.9669L1.6919 15.1273L2.20538 17.2297L4.13093 14.0761L4.77278 15.1273L5.67137 14.5491L6.18484 16.2836L6.82669 14.2863L7.85365 16.5464L8.4955 16.0208L9.90757 16.2836L10.6778 14.8645L11.448 15.1273L12.475 11.5532L13.5019 11.0276L14.2721 12.8672L15.4275 11.9737V14.7068L16.4544 13.9184L17.353 14.5491L17.7381 13.4979L18.2516 16.0208L18.8935 14.8645L20.1772 15.7055V13.4979L21.0758 13.9184L21.5892 4.45748L22.4878 7.03296L23.3864 6.13943L24.0283 6.66503L25.0552 6.13943L25.6971 1.88201L27.1091 7.03296V3.51139L28.6496 5.2459L30.19 2.46018L31.4737 3.82676L32.1156 2.19738L33.3993 4.45748L34.8113 5.61382V4.24724L36.6085 5.87662V4.45748L38.1489 7.40088L39.0475 6.13943V8.13673L40.7163 6.66503L41.7433 4.08956L43.2837 5.87662L44.3107 4.93053L45.3377 7.87393L45.5944 6.19199L47.0065 7.40088V5.87662L48.932 7.87393L49.5739 4.61517L51.2427 7.03296L52.0129 6.34967L52.7831 6.66503V4.61517L53.8101 4.72029L54.4519 0.200073L55.6073 4.93053L56.3775 4.72029L58.4314 7.66368L59.33 10.2917L60.2286 9.60843V13.4979L61.769 11.0801L63.4378 14.7594L64.5931 13.8133L65.1066 18.2284L65.6201 17.6502L67.674 19.7001L68.701 15.3901L69.7279 17.9656L70.3698 17.1772L71.2684 18.4386L72.5521 16.6516L73.9641 17.1772L77.3018 13.4979L78.2004 14.7594L81.538 8.66234L82.1798 9.03026L82.95 8.03161" stroke="#1E8139" stroke-width="1.04"/>
</svg>